# xmcd
#
# Track frame offsets:
# 150
# 16176
# 38385
# 54069
# 79341
# 103109
# 125562
# 146498
# 175214
# 192759
# 211148
# 227392
#
# Disc length: 3339 seconds
#
#
# Revision: 3
# Processed by: cddbd v1.5.2PL0 Copyright (c) Steve Scherf et al.
# Submitted via: FreeRIP 2.945 
#
DISCID=8d0d090c
DTITLE=Joel Mabus - Six of One
DYEAR=2001
DGENRE=Acoustic
TTITLE0=School For Love
TTITLE1=Careless Love
TTITLE2=My Ramona
TTITLE3=Old Smokey
TTITLE4=Storybook Romance
TTITLE5=The Cowboy's Barb'ry Allen
TTITLE6=Little Baby Lindberg
TTITLE7=Old Baggum/Toss the Feathers
TTITLE8=Virus on the Town
TTITLE9=Balm in Gilead
TTITLE10=Back Porch of Glory
TTITLE11=Don't Let Your Deal Go Down
EXTD=
EXTT0=
EXTT1=
EXTT2=
EXTT3=
EXTT4=
EXTT5=
EXTT6=
EXTT7=
EXTT8=
EXTT9=
EXTT10=
EXTT11=
PLAYORDER=
